<svg xmlns="http://www.w3.org/2000/svg" xmlns:xlink="http://www.w3.org/1999/xlink" width="1366" zoomAndPan="magnify" viewBox="0 0 1024.5 576" height="768" preserveAspectRatio="xMidYMid meet" version="1.0"><defs><clipPath id="2b49e747f1"><path d="M 95 273 L 884 273 L 884 334.585938 L 95 334.585938 Z M 95 273 " clip-rule="nonzero"/></clipPath><clipPath id="798ab477b1"><path d="M 612.453125 282.378906 L 613.902344 282.378906 L 613.902344 283.65625 L 612.453125 283.65625 Z M 612.453125 282.378906 " clip-rule="nonzero"/></clipPath><clipPath id="261f21faee"><path d="M 613.875 282.828125 C 613.199219 283.878906 612.675781 283.652344 612.527344 283.503906 C 612.375 283.277344 612.527344 282.675781 612.675781 282.453125 C 612.902344 282.304688 613.652344 282.527344 613.652344 282.527344 " clip-rule="nonzero"/></clipPath><clipPath id="df6e971e74"><path d="M 862.578125 279.679688 L 864.054688 279.679688 L 864.054688 280.902344 L 862.578125 280.902344 Z M 862.578125 279.679688 " clip-rule="nonzero"/></clipPath><clipPath id="1def312e19"><path d="M 864.027344 280.128906 C 863.355469 281.101562 862.753906 280.953125 862.679688 280.730469 C 862.527344 280.503906 862.605469 279.902344 862.828125 279.753906 C 863.054688 279.605469 863.804688 279.828125 863.804688 279.828125 " clip-rule="nonzero"/></clipPath><clipPath id="7a976fb501"><path d="M 845.433594 279.277344 L 864.050781 279.277344 L 864.050781 281.597656 L 845.433594 281.597656 Z M 845.433594 279.277344 " clip-rule="nonzero"/></clipPath><clipPath id="3e023eb9e1"><path d="M 863.277344 281.101562 C 845.738281 281.554688 845.4375 281.253906 845.4375 280.953125 C 845.4375 280.730469 846.113281 280.203125 846.261719 280.277344 C 846.488281 280.355469 846.863281 281.476562 846.710938 281.554688 C 846.5625 281.703125 845.511719 281.328125 845.4375 281.101562 C 845.4375 280.878906 845.738281 280.503906 846.1875 280.277344 C 848.136719 279.378906 861.328125 278.929688 863.277344 279.605469 C 863.726562 279.753906 864.027344 279.980469 864.027344 280.277344 C 864.027344 280.503906 863.277344 281.101562 863.277344 281.101562 " clip-rule="nonzero"/></clipPath></defs><g clip-path="url(#2b49e747f1)"><path fill="#dc2626" d="M 881.039062 278.609375 C 830.464844 271.835938 778.546875 272.90625 727.253906 274.5625 C 676.550781 276.203125 625.867188 278.191406 575.242188 280.589844 C 524.683594 282.988281 474.164062 285.871094 423.832031 289.792969 C 372.878906 293.769531 322.164062 298.765625 271.789062 305.101562 C 219.773438 311.640625 168.222656 320.113281 117.226562 329.324219 C 110.273438 330.578125 103.273438 331.730469 96.34375 333.027344 C 94.683594 333.339844 99.117188 334.714844 100.355469 334.503906 C 107.46875 333.292969 114.519531 331.90625 121.585938 330.554688 C 163.0625 323.140625 205.113281 317.300781 247.566406 312.503906 C 298.109375 306.800781 349.183594 302.46875 400.1875 298.851562 C 451.378906 295.222656 502.71875 292.429688 554.097656 290.15625 C 605.199219 287.90625 656.34375 286.175781 707.503906 284.582031 C 753.964844 283.136719 800.710938 281.359375 847.046875 284.609375 C 844.074219 285.113281 841.109375 285.625 838.148438 286.144531 C 820.363281 289.296875 801.746094 291.054688 783.492188 292.667969 C 751.316406 295.515625 718.953125 297.609375 686.601562 299.507812 C 686.019531 299.546875 687.605469 300.941406 688.4375 300.90625 C 719.59375 299.429688 750.613281 297.175781 781.558594 294.476562 C 797.382812 293.097656 813.40625 291.523438 829.347656 290.902344 C 837.105469 290.601562 844.851562 290.269531 852.570312 289.707031 C 856.847656 289.394531 861.117188 289.070312 865.386719 288.722656 C 870.347656 288.324219 875.390625 288.398438 880.320312 287.875 C 884.011719 287.480469 884.761719 279.109375 881.039062 278.609375 " fill-opacity="1" fill-rule="nonzero"/></g><g clip-path="url(#798ab477b1)"><g clip-path="url(#261f21faee)"><path fill="#dc2626" d="M 609.527344 279.453125 L 616.941406 279.453125 L 616.941406 286.726562 L 609.527344 286.726562 Z M 609.527344 279.453125 " fill-opacity="1" fill-rule="nonzero"/></g></g><g clip-path="url(#df6e971e74)"><g clip-path="url(#1def312e19)"><path fill="#dc2626" d="M 859.679688 276.753906 L 867.09375 276.753906 L 867.09375 284.027344 L 859.679688 284.027344 Z M 859.679688 276.753906 " fill-opacity="1" fill-rule="nonzero"/></g></g><g clip-path="url(#7a976fb501)"><g clip-path="url(#3e023eb9e1)"><path fill="#dc2626" d="M 842.4375 276.605469 L 867.015625 276.605469 L 867.015625 284.851562 L 842.4375 284.851562 Z M 842.4375 276.605469 " fill-opacity="1" fill-rule="nonzero"/></g></g></svg>